<mxfile host="65bd71144e">
    <diagram id="-smbe4beF29BFUUsIuV4" name="Page-1">
        <mxGraphModel dx="2681" dy="1191" grid="1" gridSize="10" guides="1" tooltips="1" connect="1" arrows="1" fold="1" page="1" pageScale="1" pageWidth="850" pageHeight="1100" math="0" shadow="0">
            <root>
                <mxCell id="0"/>
                <mxCell id="1" parent="0"/>
                <mxCell id="41" value="Image Push&lt;br&gt;Deploy" style="text;html=1;strokeColor=none;fillColor=none;align=center;verticalAlign=middle;whiteSpace=wrap;rounded=0;dashed=1;" parent="1" vertex="1">
                    <mxGeometry x="582" y="552" width="140" height="45" as="geometry"/>
                </mxCell>
                <mxCell id="34" value="" style="rounded=1;whiteSpace=wrap;html=1;fillColor=none;dashed=1;" parent="1" vertex="1">
                    <mxGeometry x="704" y="510" width="276" height="134" as="geometry"/>
                </mxCell>
                <mxCell id="6" value="" style="rounded=0;whiteSpace=wrap;html=1;fillColor=none;" parent="1" vertex="1">
                    <mxGeometry x="82.92" y="770" width="177.08" height="138" as="geometry"/>
                </mxCell>
                <mxCell id="4" value="" style="verticalLabelPosition=bottom;sketch=0;aspect=fixed;html=1;verticalAlign=top;strokeColor=none;align=center;outlineConnect=0;shape=mxgraph.citrix.laptop_2;" parent="1" vertex="1">
                    <mxGeometry x="50" y="740" width="75.77" height="56.5" as="geometry"/>
                </mxCell>
                <mxCell id="7" value="" style="rounded=0;whiteSpace=wrap;html=1;fillColor=none;" parent="1" vertex="1">
                    <mxGeometry x="79.73" y="510" width="180.27" height="120" as="geometry"/>
                </mxCell>
                <mxCell id="3" value="" style="shape=image;verticalLabelPosition=bottom;labelBackgroundColor=default;verticalAlign=top;aspect=fixed;imageAspect=0;image=data:image/png,iVBORw0KGgoAAAANSUhEUgAAAR4AAACwCAMAAADudvHOAAAA1VBMVEX////5qwDocQr5qQD5qAD5pQD5pgDnawDobgDnbADmYgD6rgDnZwDnaADmZADocADnbAz83a/9477//Pb/+fD6ukz87+j+8+P6vVf7wmj969H95sb7x3X94br5sCL53c7vn3Dxroj76+L31MH816P7xnT96s780pT7zYjzmw/0xKrsjVDrhUD7yX382ab6tkLtk1r5siz6wGH1yrPzvqHxsIz418XpeCDummfqfzH6tTr7z47ykADznib0ojb+9+v0p0X1rVfqfCnzplPyn0XxmTbviADRi7/6AAAJB0lEQVR4nO2da3faOBCGwbJk4xgoMaRAuCUhIRtCIZC0adndbtvd/f8/aW2DCReP0dhOpJyd50tP05450htpNJqR5EKBIAiCIAiCIAiCIAiCIAiCIAiCIAiCIAiCIAiCIAiC0AevfTpcXreajUaz1Vl+Ov2Y0k69XRtNWo3pt2/TRmsyqt3Uc22mCtrDVpFzIUy2xhSC8951DalRezRngZkXO4Eh1hzdvE6734JuS3DBWPEAxvyudc4lzXi1eaDvoRnfkCl4s+a9ai9eh/O5L01cl14kEp32cTunzWQ7RV/q5unr9ydPvGExuU/rnvFeLdnOiEnZEWz0foaQd3vkF77TsWEedoomn7wTgUbclOxTiGCf4u0scXZMfvu2/UxFlwlMp0KBejE+KIUd00yequqpN7jsdNiC8etc7BT5VOtYqJaqUz4mu8nFDuMaD6A5T9epsF9bnqOV3k6Rz9X1P5HvPZQr3denGdmpZ7JTNHvfVaoA0ZZehGPh9XzsBMGCRLT51pxmmBA+YrSxk1EdH95VKkUMtWzqsOLaTjebnUgfzRz03e8n2fqz3jXlo07x5Pc7tXrscuV8+C2LPmy6spNxhm7U+e2Ds1CryDZ9xzAy6cNX6Z92buoYhtNXLMqGM7dqZNLHnIR26lnXrLU6f/jqGIZ7pliWCMMOmpNBH7Gy08tTHb9RalWJmJUMI5M+YrXOzDNFg/vqGEZppliYkDvXMDLpwx5COxlDg0idPz9smuNqsHydOYaRTR8eBrn13NXx3bN693NvGzL6RBWGmH9Z7SGnco4nqFEE9QoZdQz7XrE421ML1IcJLnrN606n1ehxsb88rTZbMlPLt2NOW5PlctKamrF51r+s3dYon15lw0jWhwnR2q5qtYeNnZ6tN1tH3TITZqe7tRf/3r029xXaV8fX543l2OPioEG7+jDeOCyyeJ96m33nerN1e0QexpsxZbHz5s7+9VAdw7p4bQWS2PHLh/r4nQKqoecP60zyarN1xC8zPgfsfNwS6MehOoq986AU06KNPrEp9ohaODNYI/zLJHHwJNpp90SCOkZpkG+PMcQOno0+RworXkNEmy0vcfAcK9BMOKyO0uET43k2+jB+tIa+5OvN1jJh8EjYCTJokDoqvY8LNCnQh0mcwejy1Z9J6pgSdj4KUB2Fi9fiYFXfYFtS+fBVfrkLF/yYKWXHs2ywKWVVmZ97uE2obEIDDpi55DmgM3ggqwqdIcdsIHNRCav6cb8T0U9ojBrn/AjO9/ITxk4NnFsCcajgCZzp1iO2Z7kwhuaW/RVlpwnNLdbDmPkKNkfN7AKHs3OJsgPOLY4q513C7VFx8ucz5A2RgeoNNLcYsloeH8L7lK9whnLhCXI9SFc4gqIe2VUrog4NHyWRIbSs2884O9Cy/nImQZYB1CIVzgeaWy6ywAQNHiG9qEf0K0CTKlhL2TkD2lK1cXa+Q57ZxLfJqALy4NaKPPgMxBkl5ESHPDPbP08nAeQOFfjmu5yaAgWFIsUhlD4w4RUEhlAyo4I8/AglM3iaM17A2oUd0TkALBNY11PoAAtXCtdTKHyJdz7YxTQHgC2FPUbamcfLw76ladRzfGSIblR2gLAHndsFyn+slaZRF4A8uE1gHvyMlwcdoX6Ll2edZkUCJBGqX9IYywQwzS1ULqMAy5PqggTJk4g+8gCTC72GAvKwTppG6SMP4JrtAdIOsCPFZjNW6OOaZ7SwJwFlD8pIO1BYKNI0Sp+wENr+VZB1ASgbhk2GheizqbgDduy5bUlTnPvXaEsKpZqxYTOY0EgRNmuU0IDSYVjnAxYBUzgfjdJhcDIV+asCk6nohI9OyVSwCohdRaEqIH5p1yoVDxdycEMZLuQgL/XpVcgBy4DI4QOXAae4BulVBoSLyJXPKDtwERn1cohmRWT4CEIVdxcG2FYEJ+AxZnQ7ggAFhv5kH2DswAdYTMS+VLsDLKAr9KcX5sBawrlUDrw+coh+x5/g2YU8HgYe8JE/Hqbh4bnCFXz00nCkdpSrmthpwlsrQsrOWUnDo5cFCwjisQd3oftHxeLJD5krxZcJ6ii8dQJGhshj3yNo+Jz8KBvO0ez1ZzdBHYXHvr1XvjQQqOP/+sfJccsF7JUNtXdO4nO7mCsnq8g4/r7Sya+Vc7OT3Ef/Z4IHVHvlJH744C4shfvy2OETqRMMoK9AIH45cxImluLBE+t9kNfdVpFxjPc5+bVl23a/3B1OsauxA+2z1qi97hazeKEvSy7DHx8sXjvqBAKVnfHjVjR1uXgul5NHjo+r+LW+xV4KKsVV2/Agz/7jIvvqhApZbsUYPw8Gg9lPt3JcGw2u2hbGO8M7zUXt1QnU3dD55G8gZqjapVLJtiWkMXS4qF2obw+fdNf8wwDJ2/Y+oDo4NLjmvz29PvyR6pGI1WXkremVkzrqp1bAIOpLOnU2V9mvo/Fz8k8u6ujxxMjmsEZadTavzj2wPNXR5YGaQj1c3dOrE5X8vNBz56SOPs8bhWneDOpsihIfeX7q6PM4lr9ndjKps7nYdsNzU0ejp9X88D7Tw3O+d15nTc//zUkdLRatF7K+3STW0f8iMTvxXtXJ/JinGZ0lvHLAFKQsVUdJ3S+ZrE/KRtvWvsxmKgkbe6Psbcj2kPDLteOzn5n8j/VFmxV9jwzPULPty3/P0EkUCSpvf45Qmm7aCSamO4mZReVImgvCrmjnlLfxmqme0hf71dD6uJLCQ1fde10nVsR5EfsBBcZbMTm9hY32QJalVSwIMBQYgRifAvWMpwpKIKuCvc6hitHBk3kJ4sCfkPIuKnAddm9aWZWLd/IRmIDag8QXXJjgreQDct6j7Uo4af8/Pb0jcQLaExP4qNZGm4ehRJ+uZk45UaFS2ZlpGCUf5+a2x+MkCr7xxhtD2avG3uLZda1SzDSr2pbrzhbvbOBsUe/eNkwugs/WmeFrsMG374rzIfabdf3Hme24ZSsoUgSUSlbZdUqzRy33Dzjq7dNPo9tJpzNZDmvnab+cWPD6i8eL5/G9z/j54nHR1/pzQQRBEARBEARBEARBEARBEARBEARBEARBEARBEARBEP87/gMtLruwn5HClwAAAABJRU5ErkJggg==;" parent="1" vertex="1">
                    <mxGeometry x="50" y="490" width="81.25" height="50" as="geometry"/>
                </mxCell>
                <mxCell id="10" style="edgeStyle=none;html=1;exitX=0.5;exitY=0;exitDx=0;exitDy=0;entryX=0.563;entryY=1;entryDx=0;entryDy=0;entryPerimeter=0;" parent="1" source="5" target="7" edge="1">
                    <mxGeometry relative="1" as="geometry"/>
                </mxCell>
                <mxCell id="5" value="" style="shape=image;verticalLabelPosition=bottom;labelBackgroundColor=default;verticalAlign=top;aspect=fixed;imageAspect=0;image=data:image/png,iVBORw0KGgoAAAANSUhEUgAAANEAAADyCAMAAADk3NBFAAAAwFBMVEX////zdyZOTk6enp52dndhYmI7OztERETyawDx8fHybQA/Pz9LS0tHR0fyagBBQUE4ODiurq69vb35+fnr6+vzdB7d3d3T09OWlpbzcRXzcxvFxcXybw3l5eW6urr++PT96uDOzs5qamp+fn6mpqb6yK9UVFT849b718X+8On839H5vqH96N31klr6zriHh4f2m2r3pXr4tpX0hEH1jVH0ikz4so/0gDllZWX3q4UlJSUuLi72oXSDg4T0gTn6yrMSqUiBAAAQxElEQVR4nO1deX+qOhOuGyCgqBQVpeJe97XV03u6fP9vdZOACiFA2PX8+vzz3vpCyJOZTCaTk5mnp1/84hduKA/q48K4Nyhn3ZGY0P0aDosQw+G2lXVnYkCraNAxMPx6ybpDUVG38kGcGll3KRraOCFAqZ51p6Jg7CQEKHWz7lZ4dEmEAKWHnUsymVCx+JV1z8Ki7kKoOHxUI+4momJxm3XXwqHlzmgoZ925UHBVuodVu607o2Iv686Fggeh4jjrzoXCL6P7x783j8buhIaDrDsXCgOP9egxd7Oubl02PoP+OvtZnva79Xr99va2Xu/2p+Vk9qoHaaNwJ0o3ny13R4XjeU1VOx3lgo6qajzPqcfdYdOna6nsJqQRdWfk55dICqrPDusOp6kdJecKRVE1Tn0/zSjE5diSmyJqUtLpFacQYeMti9OR41UPLjZegNb5Y+bXJtGA027LG9NpycC0+ByUjf6z46nZXKHy3Hoy92pXHhEIFej61L7wQZwCiUn/WfNaJyCbi6w07m3ioX/y1hELopSQjVCplKfUVIDFXtOCCgcjxe881K9nozQsUg52104IgJLP8syFlI6NFJ87uAqqPB4Or3yovR+cT2lK4wrOP7ho4rFArX6uXD/UqrdHxVG7R685ThFRCGn1yakx0UHocOsFdY/9sHUS8jMO/V0c6maHwr29xsSIIKKpp0mZJ8DH4LTux0FIJjAqeVn9UzURPohTdR/I9wvAqO36+I8a6/zBofLL6JTyAbSu/84nyQdC+45sIooERi4O+4mLy157QOH2ERnVnWo3JUYtV2cteT4Qai6amMpORsRpdKimICAT1Y9IlAo4pSlhn6S/pSQgA9q5H4XS0E4oTzhGm8Xm8VBC4X4iMCrbCREM3YFLlw9EJAMhf10VbzolSGiduM0mQTtGWW4HxqZ8Who7zdz8nOii6g5F6Ueg9FQe9OoNksf+GnjDHR8l3jcYEQKzDKbQDdVJ7IR+qlkSApQOMRNaZkwImLxTvIRCqBwKoGoaz/PcFeAP8JPqGZ10Ax/Nf4hASAE8eI7Pve0+Dsuf2eL1tT830V+9LmY/k8PHbn3mUQg5CLMYKU0oVQ5w4Tll/TGZrShWEH01m3zschw9Lz4uxdtQEIJklPVh4x7KccVqc9jl6GhxMWwDAWZ+hBSVV99OM89Irx/ms8Na5X2dxliM+MrT8wFs+PUypuDN63Kn+QTOuehLre5hlhSt+n2IL7yGsDgcq16i4vtRv3B2a13ReJ8zhbCYw0MB1892IkaJdmTnFNLZxBCAcoO+2bmR6rxHavlAnEQq9/6TIB0D+s8bOQCtRdkvLQgrq8Krp35c3fbG/NThCYLiNqFb1J1B0w73Hr69EJi9ESLRfOjpu8YbU/l9iCU0GlZ7Hlc+5TtkW0tsEqnaKRHb5gf9oGHxJy2chzfnMD7uJ3BJQ1+qdk7VUKvg0TopVS47PggHTPdCNLG0jEqH+8iWD8SH1UaowfVufptECrfLZP7gmO8sBwhcYF9yfX1ZixhPjxGL76viKMeA714jP0rsIYtIWF7FxAfcWFyGgn+/C4W7Yf52mQ5aoKltmgUlpk1jrJiYnpEaxL/TjXHQjv2kuhUF83djvKsB1OcD2f6Ix1EJ4oQCBZ0d9QvIcisRXNzEsUCax1E7mXsgos75zkyCHfoR9FFZUz4NHTqN9uHMsOPphQRmUeSD9xRw4mhnks7FfxCQCCZVSnO31BI4rEkEsyqdw6pUo5xOp4oZx1E4DpvqHVttHLMqhVNzfBCVMzDjfR9ZPYRRuGHiGwi/m70QLR6uw7/4xS9+8Yu7h/yY+QlcUO4W/vxHf2/l/vHyn1QRhX+KkZDP538Z3TV+Gd0/7paRXA65pMTBqPyCfVzetgEsF3S6ENhHmu1CodC+3Wd+hs8Y1/3k3ohlAEpt2zu9OoTjBvSgAdCT0Xu9XmPMAkZsHX2y28CeHhSKeUmajup4ri25BxsxOltkmL/YvcPy30qlwljuFvwnSVINu9/SqIGHareWB38liUHX8MeCJOYhxApTsnAq1FiWZRzXZMB7kjA1vgv+k0WvshJCzXYfYFwRKrBlUWRr2P14uQafBv/xUhLAIwLOiEHDdPuhBv6uYF3pSlA7boyaQFvEIpDVVMrfINZuNwDLsJl85YnQDtu7ftcGycKoJbLGMIki1jAE/I0FDzFoMGNhBPVfHIL/gU1WwBhXDEEJt/QJIxHr5PVHRjYoi6JoiteAcHu4XgP/jygJxe3XFHVbsKXOQIJ9ejHHJD5Gf2QWfIwVvnrdRjtvKJ90fbEFJz2UowUy/K1iJGxDOSWGSAJ/hgil62Suwz6w5q2U5giZD+tN6in87lPJYC045lEYRs/gJbFUFPPi9UtdY8CZ60BPkTzKzmYsHWgK9nbNwYBdYG6K1oBdtMxixCUPhkwUit0Xh50NzQgoS16c3uyTXDIm8uXvOos1/PRUhKOat/adaL3h2AjWF7uMXdzwS9MieIx4uzo8I/AV2yVGOY+mzqWpMlI76yV1pHSsVX2IjApgKFh7B7YVILTb582xI1+hDMfINFQ1+wrSRJKbXv78qkDlsXS3AVthrO+QGMmM00g+g+fYmxqWDBvnku8jAiMWz3uATNl1nqDuWltCSmezFSRGPQlXVgBgQizi/oPMt9tl8QiMBFzqqIO3LyHbINlfsttzEiNo/xh8+AtA3rWrlTFskFvunPCMMNMMgSbX8PIXsg03Cj3WoU4ERkjpBLxh2NRV+DJr0+74GDmUzpw6V6nINRtvOPhYwwRG8CdxWn6x4bkNGpYueUEMRq65kCIwcmYeQZ5n7aqM0ETlBVM7kF/E2DWMwAhJUhQwVKydRIzwLsbBSHImPsasWdPaNlQcEcs4QmAEZwwZV51AjAgakgQj9By2cFxYQAOFi5XAqO3O6GJyZOfanTCjm6HqSVdNQ4tyDbOOBEZIU0WGgL9ZMDK07mZW5duSBJWugmcVJjBCi9aw/EzApd00GRmWwfIDGnFksUuEvRmJ0Ui0LgBEBGWE3DFsMGlt3UjEZj+yDcLA9NYdS4jbPMJ3itEYIT3+Y38IrZUU6xHaANo2Z1A08BfYgvMFAiP0KYfPEIkRcgOxQUIrp7/PgDpoV0ZkGwQX38ZthfXobhhGX6LjK6gJp1/n8KwMb9v+K+pzS2aIXtNAcnzrCa2wouPRCIzGzhW5gBgxsv0lTL8uuwnMO4HzolKAE1Fw5n5AjLBgBJpIrHvOouCMkNjzkmWkW8ZuyDL45v6IsefhMfbhmD17QRv4rWjfvJpAu/KKfVtgRJEYj0oMQRkZvrrFNgyEPO6+X0JTgpXSEFkph2ohv0Ekuy0yCo5hKjZGPzLuUykwI6R2+YqZIu1ly4AxnpIYwcnevqhia1rBZWugYYb0aqT9TBGZIWytMLeoRWtEZVC86XxgRrIRfBMFcbQdTRm413ohMRJH0A0Qto1mczBG0U3wJCGWYQROyd5/F6l4Jd+uj7fXB8qGTojMsD5otlqDXmHISJaWfRg9Oxg9DWrGqF5CmrUGGjaL8TW3o2MUEpAEQWLNPpAqXBi+Jz6/TBjyECssy95W5rIh77zIgrZB43CILV30YfRCmJyNmpi/ogK7CZcTghc0tj6Yl6bEU4amIyhk/fy1BZtHMWKsDaNu3DwjH0ZNPL6BfswLl/h8rVhGX5AkS+zy6te1poI5nBVJctmxyC5O4OVTkikm21Z8ANT9Sgo0XivdfC65JkhSzXV/1HIE0RC6o4rACNK0YAim1Ws0erjWoU4OtnkJKMZ061pSBa5FJNN9QW/ISqCBL3zv1J5KDFA6RmBLW/tJzADCtd6J5bgAQ7nsetBl973lsmdKYzhVJE+3xu0facjPzZeX56D5kg0nNGBCYrfdBAkNwbnkJAq0g2ECnjoGYIQWUR8RxQs087x3WE4EYDTEo/dJY+DcAFCAntEWbXfSLMSEvMvAWk7NaAt1zunrJYfnUiWUllMyKg9Zsq+XFF4KaB11W849QMeoZ/p6KSXrbxVFBi33Yi1w3nUaRvI4bzjdtbSKeDRNd5Sdhig2RsPIdNhSI2QeKrIMZep57GUKrUPHYxUpxfoQ8N9tTMfhJm35Pxi19R79ngQUepRmTZJelIKeKGrr7WiU/zKjO/xXWVHQ/af+jXDmuOt7vST4dnj2YDeU+v6X9KJlY00buv89vqcl90CKp+coLsTqVeVhKOnnap/isb2qPgglPadSXejvVxU+rhoWiWKuKBydHVsrcaRbTByvmkKbYueVy+Vobjdniw3oJU97YfxNAQ/feYYGmA1eOdM+jVILqpEynycNlA2eWkRmiipFu9vJ9JqDScWCJOZbGTmquDtNr2OmqgpkvnZGYjXtnHqSRH/oZp4qJVAaUr16l3nEIC5JqnLVYKN9uKRV0853tdreEokFSrsFccvHF0t1pZhwuOXkC5Ya7clWukDV7iRRyCZ3y+QYNH3d09U4mKp3B4b89c2SDVV5C96Abs33qXDvGU+n/s5WpCjUJm5jy6eqxFkoLzDmn/YybCGrjGGZsLPjtPrEkhOH0TkEPC2xwh0zyI60WDuSLYdOtfzqyPmv8J1lurZ8cnYmxI6QKxDPtQyhVnepKd/qg5SJPWSeZQOOfNgQHS53SCESoU+OxCTsgXPD2pEjJ6tXufdksv5foG9cs/8HdhbsmLuVz1A0/n2ZECmPvP9hE2Fb4FERRNGq51Psc2q1fPcqOMFF98g86+rAkiC7SWybqPnPp8J5FgWJpRjNh0+BN0XjlN1yEdWoryafOc6vmrZGnxTWC5/+VRKBrLTjfhKOlr76+XjXfNkA0IVQKbCmqlqndDSeU2H1I2qDMV/8nAJUQIpYDiQ4JYMXrOpUVd52p+Vm9jonCE2frxabyeFzfeYgF/pCwJ1oC1FoSiaxDqy9BSuIqbnz+fiOcPw+5zo8rCamacFLicVKCFCKUnFUuSJCI2q8hMDWItUiqgRC8c2hC/aZVOm8ICazbUcWlVQvSCjz8yYzSomd/bymXcDXgJLg+Zx+zMA+qLlE9y371DWPT8ImWLEh1cFKDmlUvJinqXlqOsc96ZVgT63iRT8dMalpFvVZ8vQuc0goMRft9cN8zSWrevx7P1VCALNzgqqndTJJ1j9RE+Kkhjx6iAF4UbmY+JwyPCbVD3FzUvnMy8pNcvF5EYqWYRlDC2YuZU+DosMd76YaSf+DWPY0oHj2qRz1Pjdbg0ELz1NKwMwj+E5Bh1unYq5b9UIbpU9tt8dd35sV8ETBUfiUAh1AZ5LK7OkiNle0nUlenZh9wNg1vawAm85+lo4xaBYcaFPdw5xv9t9AVn60lI7K87nPST9hHlc02k5GAJSXevTFcn9UUQwYjzoqMNrKc9r35zIl2RiokwlZExL7Y774OXzs3s8dvsohVIHH/r7eHyaLflIdd0OdzAdSCnf1Stfnc13PbvF0UTkDmfUqAppehAqpXZiMEV58gN6FuGKaMQaeIioUXHNw3C28+TygkLxn0SPOpJ4foYczd/6EAi2z2UP2VbpCO2Byl4zx4s+okGZmj+jwNwyFQtBcKNnil9H949+bRzS27sFyLfiL6MHWo3/QZ/A3DY9lGJ4ofO8HUzr//VGa6dpiwr8mIr+Z9HCzCMIrFvR4e3IE93hd4VEz/7hSSjPVVLzokRSvPX5UCUGQziYey0N1Aj8/6j2uxl3RqrcDnPE9CJ6bA7pz2F8kh/8BkRiFqKva3goAAAAASUVORK5CYII=;" parent="1" vertex="1">
                    <mxGeometry x="141.25" y="793" width="79.45" height="92" as="geometry"/>
                </mxCell>
                <mxCell id="16" style="edgeStyle=none;html=1;exitX=0.5;exitY=0;exitDx=0;exitDy=0;entryX=0.25;entryY=1;entryDx=0;entryDy=0;" parent="1" source="11" target="13" edge="1">
                    <mxGeometry relative="1" as="geometry"/>
                </mxCell>
                <mxCell id="11" value="" style="shape=image;verticalLabelPosition=bottom;labelBackgroundColor=default;verticalAlign=top;aspect=fixed;imageAspect=0;image=data:image/png,iVBORw0KGgoAAAANSUhEUgAAANEAAADyCAMAAADk3NBFAAAAwFBMVEX////zdyZOTk6enp52dndhYmI7OztERETyawDx8fHybQA/Pz9LS0tHR0fyagBBQUE4ODiurq69vb35+fnr6+vzdB7d3d3T09OWlpbzcRXzcxvFxcXybw3l5eW6urr++PT96uDOzs5qamp+fn6mpqb6yK9UVFT849b718X+8On839H5vqH96N31klr6zriHh4f2m2r3pXr4tpX0hEH1jVH0ikz4so/0gDllZWX3q4UlJSUuLi72oXSDg4T0gTn6yrMSqUiBAAAQxElEQVR4nO1deX+qOhOuGyCgqBQVpeJe97XV03u6fP9vdZOACiFA2PX8+vzz3vpCyJOZTCaTk5mnp1/84hduKA/q48K4Nyhn3ZGY0P0aDosQw+G2lXVnYkCraNAxMPx6ybpDUVG38kGcGll3KRraOCFAqZ51p6Jg7CQEKHWz7lZ4dEmEAKWHnUsymVCx+JV1z8Ki7kKoOHxUI+4momJxm3XXwqHlzmgoZ925UHBVuodVu607o2Iv686Fggeh4jjrzoXCL6P7x783j8buhIaDrDsXCgOP9egxd7Oubl02PoP+OvtZnva79Xr99va2Xu/2p+Vk9qoHaaNwJ0o3ny13R4XjeU1VOx3lgo6qajzPqcfdYdOna6nsJqQRdWfk55dICqrPDusOp6kdJecKRVE1Tn0/zSjE5diSmyJqUtLpFacQYeMti9OR41UPLjZegNb5Y+bXJtGA027LG9NpycC0+ByUjf6z46nZXKHy3Hoy92pXHhEIFej61L7wQZwCiUn/WfNaJyCbi6w07m3ioX/y1hELopSQjVCplKfUVIDFXtOCCgcjxe881K9nozQsUg52104IgJLP8syFlI6NFJ87uAqqPB4Or3yovR+cT2lK4wrOP7ho4rFArX6uXD/UqrdHxVG7R685ThFRCGn1yakx0UHocOsFdY/9sHUS8jMO/V0c6maHwr29xsSIIKKpp0mZJ8DH4LTux0FIJjAqeVn9UzURPohTdR/I9wvAqO36+I8a6/zBofLL6JTyAbSu/84nyQdC+45sIooERi4O+4mLy157QOH2ERnVnWo3JUYtV2cteT4Qai6amMpORsRpdKimICAT1Y9IlAo4pSlhn6S/pSQgA9q5H4XS0E4oTzhGm8Xm8VBC4X4iMCrbCREM3YFLlw9EJAMhf10VbzolSGiduM0mQTtGWW4HxqZ8Who7zdz8nOii6g5F6Ueg9FQe9OoNksf+GnjDHR8l3jcYEQKzDKbQDdVJ7IR+qlkSApQOMRNaZkwImLxTvIRCqBwKoGoaz/PcFeAP8JPqGZ10Ax/Nf4hASAE8eI7Pve0+Dsuf2eL1tT830V+9LmY/k8PHbn3mUQg5CLMYKU0oVQ5w4Tll/TGZrShWEH01m3zschw9Lz4uxdtQEIJklPVh4x7KccVqc9jl6GhxMWwDAWZ+hBSVV99OM89Irx/ms8Na5X2dxliM+MrT8wFs+PUypuDN63Kn+QTOuehLre5hlhSt+n2IL7yGsDgcq16i4vtRv3B2a13ReJ8zhbCYw0MB1892IkaJdmTnFNLZxBCAcoO+2bmR6rxHavlAnEQq9/6TIB0D+s8bOQCtRdkvLQgrq8Krp35c3fbG/NThCYLiNqFb1J1B0w73Hr69EJi9ESLRfOjpu8YbU/l9iCU0GlZ7Hlc+5TtkW0tsEqnaKRHb5gf9oGHxJy2chzfnMD7uJ3BJQ1+qdk7VUKvg0TopVS47PggHTPdCNLG0jEqH+8iWD8SH1UaowfVufptECrfLZP7gmO8sBwhcYF9yfX1ZixhPjxGL76viKMeA714jP0rsIYtIWF7FxAfcWFyGgn+/C4W7Yf52mQ5aoKltmgUlpk1jrJiYnpEaxL/TjXHQjv2kuhUF83djvKsB1OcD2f6Ix1EJ4oQCBZ0d9QvIcisRXNzEsUCax1E7mXsgos75zkyCHfoR9FFZUz4NHTqN9uHMsOPphQRmUeSD9xRw4mhnks7FfxCQCCZVSnO31BI4rEkEsyqdw6pUo5xOp4oZx1E4DpvqHVttHLMqhVNzfBCVMzDjfR9ZPYRRuGHiGwi/m70QLR6uw7/4xS9+8Yu7h/yY+QlcUO4W/vxHf2/l/vHyn1QRhX+KkZDP538Z3TV+Gd0/7paRXA65pMTBqPyCfVzetgEsF3S6ENhHmu1CodC+3Wd+hs8Y1/3k3ohlAEpt2zu9OoTjBvSgAdCT0Xu9XmPMAkZsHX2y28CeHhSKeUmajup4ri25BxsxOltkmL/YvcPy30qlwljuFvwnSVINu9/SqIGHareWB38liUHX8MeCJOYhxApTsnAq1FiWZRzXZMB7kjA1vgv+k0WvshJCzXYfYFwRKrBlUWRr2P14uQafBv/xUhLAIwLOiEHDdPuhBv6uYF3pSlA7boyaQFvEIpDVVMrfINZuNwDLsJl85YnQDtu7ftcGycKoJbLGMIki1jAE/I0FDzFoMGNhBPVfHIL/gU1WwBhXDEEJt/QJIxHr5PVHRjYoi6JoiteAcHu4XgP/jygJxe3XFHVbsKXOQIJ9ejHHJD5Gf2QWfIwVvnrdRjtvKJ90fbEFJz2UowUy/K1iJGxDOSWGSAJ/hgil62Suwz6w5q2U5giZD+tN6in87lPJYC045lEYRs/gJbFUFPPi9UtdY8CZ60BPkTzKzmYsHWgK9nbNwYBdYG6K1oBdtMxixCUPhkwUit0Xh50NzQgoS16c3uyTXDIm8uXvOos1/PRUhKOat/adaL3h2AjWF7uMXdzwS9MieIx4uzo8I/AV2yVGOY+mzqWpMlI76yV1pHSsVX2IjApgKFh7B7YVILTb582xI1+hDMfINFQ1+wrSRJKbXv78qkDlsXS3AVthrO+QGMmM00g+g+fYmxqWDBvnku8jAiMWz3uATNl1nqDuWltCSmezFSRGPQlXVgBgQizi/oPMt9tl8QiMBFzqqIO3LyHbINlfsttzEiNo/xh8+AtA3rWrlTFskFvunPCMMNMMgSbX8PIXsg03Cj3WoU4ERkjpBLxh2NRV+DJr0+74GDmUzpw6V6nINRtvOPhYwwRG8CdxWn6x4bkNGpYueUEMRq65kCIwcmYeQZ5n7aqM0ETlBVM7kF/E2DWMwAhJUhQwVKydRIzwLsbBSHImPsasWdPaNlQcEcs4QmAEZwwZV51AjAgakgQj9By2cFxYQAOFi5XAqO3O6GJyZOfanTCjm6HqSVdNQ4tyDbOOBEZIU0WGgL9ZMDK07mZW5duSBJWugmcVJjBCi9aw/EzApd00GRmWwfIDGnFksUuEvRmJ0Ui0LgBEBGWE3DFsMGlt3UjEZj+yDcLA9NYdS4jbPMJ3itEYIT3+Y38IrZUU6xHaANo2Z1A08BfYgvMFAiP0KYfPEIkRcgOxQUIrp7/PgDpoV0ZkGwQX38ZthfXobhhGX6LjK6gJp1/n8KwMb9v+K+pzS2aIXtNAcnzrCa2wouPRCIzGzhW5gBgxsv0lTL8uuwnMO4HzolKAE1Fw5n5AjLBgBJpIrHvOouCMkNjzkmWkW8ZuyDL45v6IsefhMfbhmD17QRv4rWjfvJpAu/KKfVtgRJEYj0oMQRkZvrrFNgyEPO6+X0JTgpXSEFkph2ohv0Ekuy0yCo5hKjZGPzLuUykwI6R2+YqZIu1ly4AxnpIYwcnevqhia1rBZWugYYb0aqT9TBGZIWytMLeoRWtEZVC86XxgRrIRfBMFcbQdTRm413ohMRJH0A0Qto1mczBG0U3wJCGWYQROyd5/F6l4Jd+uj7fXB8qGTojMsD5otlqDXmHISJaWfRg9Oxg9DWrGqF5CmrUGGjaL8TW3o2MUEpAEQWLNPpAqXBi+Jz6/TBjyECssy95W5rIh77zIgrZB43CILV30YfRCmJyNmpi/ogK7CZcTghc0tj6Yl6bEU4amIyhk/fy1BZtHMWKsDaNu3DwjH0ZNPL6BfswLl/h8rVhGX5AkS+zy6te1poI5nBVJctmxyC5O4OVTkikm21Z8ANT9Sgo0XivdfC65JkhSzXV/1HIE0RC6o4rACNK0YAim1Ws0erjWoU4OtnkJKMZ061pSBa5FJNN9QW/ISqCBL3zv1J5KDFA6RmBLW/tJzADCtd6J5bgAQ7nsetBl973lsmdKYzhVJE+3xu0facjPzZeX56D5kg0nNGBCYrfdBAkNwbnkJAq0g2ECnjoGYIQWUR8RxQs087x3WE4EYDTEo/dJY+DcAFCAntEWbXfSLMSEvMvAWk7NaAt1zunrJYfnUiWUllMyKg9Zsq+XFF4KaB11W849QMeoZ/p6KSXrbxVFBi33Yi1w3nUaRvI4bzjdtbSKeDRNd5Sdhig2RsPIdNhSI2QeKrIMZep57GUKrUPHYxUpxfoQ8N9tTMfhJm35Pxi19R79ngQUepRmTZJelIKeKGrr7WiU/zKjO/xXWVHQ/af+jXDmuOt7vST4dnj2YDeU+v6X9KJlY00buv89vqcl90CKp+coLsTqVeVhKOnnap/isb2qPgglPadSXejvVxU+rhoWiWKuKBydHVsrcaRbTByvmkKbYueVy+Vobjdniw3oJU97YfxNAQ/feYYGmA1eOdM+jVILqpEynycNlA2eWkRmiipFu9vJ9JqDScWCJOZbGTmquDtNr2OmqgpkvnZGYjXtnHqSRH/oZp4qJVAaUr16l3nEIC5JqnLVYKN9uKRV0853tdreEokFSrsFccvHF0t1pZhwuOXkC5Ya7clWukDV7iRRyCZ3y+QYNH3d09U4mKp3B4b89c2SDVV5C96Abs33qXDvGU+n/s5WpCjUJm5jy6eqxFkoLzDmn/YybCGrjGGZsLPjtPrEkhOH0TkEPC2xwh0zyI60WDuSLYdOtfzqyPmv8J1lurZ8cnYmxI6QKxDPtQyhVnepKd/qg5SJPWSeZQOOfNgQHS53SCESoU+OxCTsgXPD2pEjJ6tXufdksv5foG9cs/8HdhbsmLuVz1A0/n2ZECmPvP9hE2Fb4FERRNGq51Psc2q1fPcqOMFF98g86+rAkiC7SWybqPnPp8J5FgWJpRjNh0+BN0XjlN1yEdWoryafOc6vmrZGnxTWC5/+VRKBrLTjfhKOlr76+XjXfNkA0IVQKbCmqlqndDSeU2H1I2qDMV/8nAJUQIpYDiQ4JYMXrOpUVd52p+Vm9jonCE2frxabyeFzfeYgF/pCwJ1oC1FoSiaxDqy9BSuIqbnz+fiOcPw+5zo8rCamacFLicVKCFCKUnFUuSJCI2q8hMDWItUiqgRC8c2hC/aZVOm8ICazbUcWlVQvSCjz8yYzSomd/bymXcDXgJLg+Zx+zMA+qLlE9y371DWPT8ImWLEh1cFKDmlUvJinqXlqOsc96ZVgT63iRT8dMalpFvVZ8vQuc0goMRft9cN8zSWrevx7P1VCALNzgqqndTJJ1j9RE+Kkhjx6iAF4UbmY+JwyPCbVD3FzUvnMy8pNcvF5EYqWYRlDC2YuZU+DosMd76YaSf+DWPY0oHj2qRz1Pjdbg0ELz1NKwMwj+E5Bh1unYq5b9UIbpU9tt8dd35sV8ETBUfiUAh1AZ5LK7OkiNle0nUlenZh9wNg1vawAm85+lo4xaBYcaFPdw5xv9t9AVn60lI7K87nPST9hHlc02k5GAJSXevTFcn9UUQwYjzoqMNrKc9r35zIl2RiokwlZExL7Y774OXzs3s8dvsohVIHH/r7eHyaLflIdd0OdzAdSCnf1Stfnc13PbvF0UTkDmfUqAppehAqpXZiMEV58gN6FuGKaMQaeIioUXHNw3C28+TygkLxn0SPOpJ4foYczd/6EAi2z2UP2VbpCO2Byl4zx4s+okGZmj+jwNwyFQtBcKNnil9H949+bRzS27sFyLfiL6MHWo3/QZ/A3DY9lGJ4ofO8HUzr//VGa6dpiwr8mIr+Z9HCzCMIrFvR4e3IE93hd4VEz/7hSSjPVVLzokRSvPX5UCUGQziYey0N1Aj8/6j2uxl3RqrcDnPE9CJ6bA7pz2F8kh/8BkRiFqKva3goAAAAASUVORK5CYII=;" parent="1" vertex="1">
                    <mxGeometry x="141.25" y="524" width="79.45" height="92" as="geometry"/>
                </mxCell>
                <mxCell id="12" value="Upload" style="text;html=1;strokeColor=none;fillColor=none;align=center;verticalAlign=middle;whiteSpace=wrap;rounded=0;" parent="1" vertex="1">
                    <mxGeometry x="180" y="690" width="60" height="30" as="geometry"/>
                </mxCell>
                <mxCell id="13" value="" style="rounded=1;whiteSpace=wrap;html=1;fillColor=none;" parent="1" vertex="1">
                    <mxGeometry x="221" y="310" width="169" height="90" as="geometry"/>
                </mxCell>
                <mxCell id="2" value="" style="dashed=0;outlineConnect=0;html=1;align=center;labelPosition=center;verticalLabelPosition=bottom;verticalAlign=top;shape=mxgraph.weblogos.google_drive" parent="1" vertex="1">
                    <mxGeometry x="190" y="270" width="66.4" height="58" as="geometry"/>
                </mxCell>
                <mxCell id="15" value="" style="verticalLabelPosition=bottom;html=1;verticalAlign=top;align=center;strokeColor=none;fillColor=#00BEF2;shape=mxgraph.azure.cloud_services_configuration_file;pointerEvents=1;" parent="1" vertex="1">
                    <mxGeometry x="282" y="328" width="47.5" height="50" as="geometry"/>
                </mxCell>
                <mxCell id="17" value="Upload Weights" style="text;html=1;strokeColor=none;fillColor=none;align=center;verticalAlign=middle;whiteSpace=wrap;rounded=0;" parent="1" vertex="1">
                    <mxGeometry x="158.2" y="460" width="130" height="30" as="geometry"/>
                </mxCell>
                <mxCell id="18" value="ML" style="text;html=1;strokeColor=none;fillColor=none;align=center;verticalAlign=middle;whiteSpace=wrap;rounded=0;" parent="1" vertex="1">
                    <mxGeometry x="210" y="770" width="60" height="30" as="geometry"/>
                </mxCell>
                <mxCell id="27" style="edgeStyle=none;html=1;exitX=0.5;exitY=0;exitDx=0;exitDy=0;" parent="1" source="19" target="26" edge="1">
                    <mxGeometry relative="1" as="geometry"/>
                </mxCell>
                <mxCell id="19" value="" style="rounded=0;whiteSpace=wrap;html=1;fillColor=none;" parent="1" vertex="1">
                    <mxGeometry x="327.9200000000001" y="774" width="187.08" height="138" as="geometry"/>
                </mxCell>
                <mxCell id="20" value="" style="verticalLabelPosition=bottom;sketch=0;aspect=fixed;html=1;verticalAlign=top;strokeColor=none;align=center;outlineConnect=0;shape=mxgraph.citrix.laptop_2;" parent="1" vertex="1">
                    <mxGeometry x="295" y="744" width="75.77" height="56.5" as="geometry"/>
                </mxCell>
                <mxCell id="22" value="Backend" style="text;html=1;strokeColor=none;fillColor=none;align=center;verticalAlign=middle;whiteSpace=wrap;rounded=0;" parent="1" vertex="1">
                    <mxGeometry x="455" y="774" width="60" height="30" as="geometry"/>
                </mxCell>
                <mxCell id="25" value="" style="shape=image;verticalLabelPosition=bottom;labelBackgroundColor=default;verticalAlign=top;aspect=fixed;imageAspect=0;image=data:image/png,iVBORw0KGgoAAAANSUhEUgAAAOEAAADhCAMAAAAJbSJIAAAAYFBMVEUFmYv///8AlIWv1tEAkIAAlocAkoIAj4Dd7esln5KJw7zn8/FfsqhVrqNotax7vbXH4t70+vk1o5dBp5u52taFwrrW6uel0cvC39sjn5KYysTO5eJ4vLO22dTr9fSRx8C3rQpbAAALi0lEQVR4nM1d2ZbqIBCMGIijJmrcHb3+/1/eLEazAFmowqnHmXNCSghdQHcRzOjYLbaP8/KexPv0eg0yXNN9nNyX58d2seM3HzAfvjrcklQoJYTMENSR/0Hk/0qT22XFfAkWw9XhuM/ev8VLh4xpqPbHA4smg+FqngSDyDVoqiCZM1jCGW43ObsR5Go0M5abLfqFsAwf63Aiuw/LcP2AvhOQ4WEdOdKrSEbrA+61UAxPGwGhV5EUmxPozTAM56nC0XuRVOkc8m4Ahv+OSoDplRBi+e8PMFwkEYdfwTFMFl9meIpD9PBsQoax4wfpxHARR1x+BccodupHB4arNbn/3hzDtYPYmcxwt/HEr+S4mbwKmcrwLHjziw5CnL0yPF398is4XqdNOZMY3kPv/HKEd08ML9J/B5YQcsLKYzzDJPoSvxxRQmf4+7UOLCGCXy7D4zc7sES0JDLcpd/twBIiHRUbxzDcAleALpBizIQzguHz+yO0QvRkMIz/wgitIGI4w93PXyKYUfwZ+jEOZLgYtfvZj73zE6QcuKYaxnAL/gTDLWBERMPmm0EM52AdKjcLBXhMOGiragjDG1poh7ML5KsObxiGT8TvXYe4zeaYeUsNiBr9DJfwpZLMhgVo4gr7JVwvwyW6BwORfT5H1NSsein2MXziF7s/2WMTWPAJ+wZqD8MbvAcDlU/yMS68qp7pxs4QHSYyyEJv/QCf2BM0rAy3hP2YsJAiUIUUWkO/jeGCsJiQ5W4S9qeLbALOwnDHWA2qQjDvwJ+3tMhwC8MfAkNZznwrNMOfKQwp60FZPvsXLpPM60UjwyeDoHhNexhZWodZv5kYotdLJa6vp4NkaR3GtZSB4T/Kiv49raNkaR3CMNsYGKaMeVTuq8fDZGn96ekYhkdKF37CFk6W1iCOwxn+Uj5C+TlzAMrSGiLthr+WIWfjN/p8KCmlgSoW9TOkjKFA1lZypL1zqTuZ0jC8cPa2Ra0J1glrdBnEkPMD18/h0bL0A8047TK8cza3r7Um0LL0A9E9CO8wPHFGkKqPnxONYRB20hk6DK+Uhj/BPgdeln7QWWW0GZ45jYeNNSpBlr7RybtpMdxx2m5N4wxZ+kZbn7YYbkhd2MwTZcjSN8TGxvAfZ5qRLcXIkRQVWj9nk+GaFAtbnwZHllaQazPDBacLOx8/SZZWaE5rDYas37ZFkCVLK8jGpk299RNHkKpO8QQv4JeITgaGnC7srr15srRqMtYzJH2FXR3Fk6XvNhdahqRl4bpNkClLq0YTHUNSLAy7RSFMWdpt9cOQs/uk2x5iytKq2aWGIamyp0uQK0s77b4Zcn5YbYY9VZZWDc87DEk6Q0OQLEtfSNsMIUlKHXSDfQ6uLK2aXrQYbiit6jfaybK0hNy0GHK28fVZ534yjUWTISVEScOxpZ96FHFpMKQsDEN9xRldlpaoxNSLIaPR9nZCBb4sLaHqDB+MQaoMR5Z8WVpCPGoMGYNUmLKxPMjSAq9hGtAGqfaoK4cHWVpCfRgisq47jzd6P/iQpQXKwpOCIUMomnN4lr76sNzELBgSnq7MJWZeZGmJiiFh+jYF+xxeZGkBtXoxJHz6hmBfwIssLVAsoQLKsJG2il2PRe7JiyH+0aGtKMlnmXTJEP8ZGoN9Dk+ytED+IWYMD/DP0Bjsc/iSpTnEoWAIj4bCmlruS5bmyCNixnCPZmhJ2J35k6U58vSBAP/lK3vVnDdZmiPMGcJzrnsKWL3J0hzZVBPAR421NGDmUZbmEJeMIfg3tQb7HEkoxsLhbW4ZQ7CiMa3s37jMx+Ix/W0yVROAZaIcUSk/FC7fUZoxxE40upMYV7i8j5oFWBFlD/bT4JSIpnYB9sDi2v/Co+E096pFAN2jsdfJTYObqBTbALlV2syxxMDx8F08gjMwWITOJoddOG7lynOwBLqOjjdx6oVryrJcBnccw4jgzu268JH3ACdp5EgDpyG4uM70MgliCLviYXiCgC2kGOAU88JkY0MLAFnn+wAnS/EEEWfvaYCqPlCaghxXIOZ5WHUFJdj/HXOxgBPsPR7h9EOTY+kMUr7rRGhyLJ0B3+V0QbugAgGY7QhkrmGs7EGT4BUSDxnBHrVxnGI0DZ4g7JRxj9CljGD/RDGMAWsLk5mBC2D7Y9nawn192C2ocAcs2MuN+xr/bwf7bI3vvE/zt4O9PDvvtZlyLF0A9BgTD+f9UoUniHRzE1vXPW9r2sVEIE+J1cL53AJPEJpSpHaOZ0/6ggo3QD24hOv5IWFlv4MuC1PHM2B5fIw+0e3bNgZuUb/OgJ3O8eXoM/moJ3yuoJszxTk+PunLiqinC7HZp0Uuhs88s6B3sQz2Gyzyaei14030nBIjrVuDQo8w8tps6NlXfWB/7ldem4+Szk+b9pUI+FVeuYlepxppFeo38Ku88ktXPnderRlF8PThV46wx9Tynm05aLDPkR9pcnL1zRAWIQsfTO9cfZ85rcJyXRO81ORdb+Ez5ivzGRXecfNdM8OoezLBsqtDqKWZVQw5pepamGXpAT6SyshEqz80wCxLCW196g89SlOjLCWY/dVqSFkuZl2YZSmhQrBeB0yp5ba02gXBHadRy+1tmJpkKSPtolGP722YmmQpof2Wp4KvYiSDLGXYwrZ8MUgeSt1m9bKUYQHf8jbxFfT1shQf7DX+NByPoQ70spTaEtsnqgWtLKU4+3Z8ojwtobRnccy7Qvh+be2GNQQpO2EavzY/dYEaWUpxM9R67pF8ExvQyVKOgZPON9HHdo3OCJPxw+q9L33kc2pkKWXH3eBf6sF0pCtLnQsqtM0YPGhZPsI1dGUppRmjjzC/E0XbWokS7M1e0PwvsXNlOOdaKbOfN32Z2JalwMK5D2ye7PRDmpYsxaZdvBtp+hv5uRuhQkuWci62st6NwFanTYacz74tfT3dUVKh0RYl2PfdUcK6Z6ZEU5Yy7nHVaHtfdwUVaM5ylN9ywF1BrPuecjR8TyhL7iH3PTEPvUVdllJ+yEF3drHuXQuaswCsoKKOgfeu8RaKtd1Simvb0LvzeOO0Jkspv+Lg+w9Jd1jWZSkl2I+4w5K1K/WRpYxgL/SOBz7vkv2INkawH3eXLOn+tbB6PCPYj7wPmHSn8+vhjGA/9k5nzr3clSwlfALj7+Vm3K1eyVLCjzflbvXZ7AeeKViKRsLKXlrsNi0Md/BEunIkwXMsM4aWIg5b3dICPNuUspSwF2Q1o7RWZoHDVrlbit+UtXuo2WvP5lCKhSwFF1RkCO0+fz3VdTfk+6h8/Q0uqMie2lMB2Vc/+AT2Yi5LwQUV2UP7zDZ7KySXuFfKrU1hD3sh7DUY668BXcJ6McIXVPQTHMBw9oT1Inxlb9ZqoxjObqBe3KMPDcIhZdaDKpUxQUOud1gJ0RMmxjDEhH65xG7OGNdLUxjOFgLwctCtCykGuosNraffXf0W0/ZB/Aw12hzuGBD7rTW1Q/VY209iOHv+HQu8aIRr+BjXhy3iYwRAdhIeUAxnu/QvfIwiHeV1O9K54/j9kRqNtLod603yK787UqW0FDBCGM5myTe7MRpvNz3BX2b7tW6UcoLn+yQHnft3ujHquxwEx3B2+oLCET/TfOGmuiCdXe5GmcJvsvvkZJ+n3Sb0eEVcuJns9+7gZLVae+Iow7XlskEiw2xNFUcest+j2MmF2dGN7BST+1GGsaPxpLPf2iKJeHOOCBNnF22Ao9y/peJwFGIJcJ3EeObNUwU/bFQp5t4hlCvgYiOAq0cpxAZl8g70PTysIwhJKdQaaFaIdXZ8rENHklKEa+N915MA9668bAI1kWXWecEG7ivNcOdczZOc5RiaMmMnk7mDdDGCwTDH6nDcq0E0c3Jqf3ww2OVgMSywOtySVGVEM6YtrvkfREZNpcntwCJXgMqwxG6xfZyX93W8T8t8tmu6j9f35fmxXRBuiGrjP99HhJdtBVRiAAAAAElFTkSuQmCC;" parent="1" vertex="1">
                    <mxGeometry x="385" y="800.5" width="85" height="85" as="geometry"/>
                </mxCell>
                <mxCell id="58" style="edgeStyle=none;html=1;entryX=0;entryY=0.5;entryDx=0;entryDy=0;" edge="1" parent="1" source="26" target="35">
                    <mxGeometry relative="1" as="geometry"/>
                </mxCell>
                <mxCell id="26" value="" style="dashed=0;outlineConnect=0;html=1;align=center;labelPosition=center;verticalLabelPosition=bottom;verticalAlign=top;shape=mxgraph.weblogos.github;fillColor=none;" parent="1" vertex="1">
                    <mxGeometry x="385" y="536.5" width="75" height="75" as="geometry"/>
                </mxCell>
                <mxCell id="28" value="Push" style="text;html=1;strokeColor=none;fillColor=none;align=center;verticalAlign=middle;whiteSpace=wrap;rounded=0;" parent="1" vertex="1">
                    <mxGeometry x="415" y="684" width="60" height="30" as="geometry"/>
                </mxCell>
                <mxCell id="31" value="" style="editableCssRules=.*;shape=image;verticalLabelPosition=bottom;labelBackgroundColor=#ffffff;verticalAlign=top;aspect=fixed;imageAspect=0;image=data:image/svg+xml,PHN2ZyB4bWxucz0iaHR0cDovL3d3dy53My5vcmcvMjAwMC9zdmciIHhtbG5zOnY9Imh0dHBzOi8vdmVjdGEuaW8vbmFubyIgd2lkdGg9IjM2NS40NjQ5OTY3NzA0MjQ5MyIgaGVpZ2h0PSIzNzkuMjIyOTk0NDYzNTc3OTUiIHZpZXdCb3g9IjAgMCA5Ni42OTU5OTkxNDU1MDc4MSAxMDAuMzM1OTk4NTM1MTU2MjUiPiYjeGE7PHN0eWxlIHR5cGU9InRleHQvY3NzIj4mI3hhOwkuc3Qwe2ZpbGw6IzQyODVmNDt9JiN4YTsJLnN0MXtmaWxsOiNhZWNiZmE7fSYjeGE7PC9zdHlsZT4mI3hhOwk8cGF0aCBjbGFzcz0ic3QwIiBkPSJNMjkuNzk0IDEwMC4zMzZMNDYuOTIgNTAuMTY4aDQ5Ljc3NnpNMCA5OS42NzFsMTIuOTc2LTQ5LjUwMkgyOS4yMkwxNi44OTcgOTIuMDU0eiIvPiYjeGE7CTxwYXRoIGNsYXNzPSJzdDEiIGQ9Ik0yOS43OTQgMEw0Ni45MiA1MC4xNjhoNDkuNzc2ek0wIC42NjZsMTIuOTc2IDQ5LjUwMkgyOS4yMkwxNi44OTcgOC4yODN6Ii8+JiN4YTs8L3N2Zz4=;fillColor=none;" parent="1" vertex="1">
                    <mxGeometry x="877.43" y="539" width="70" height="70" as="geometry"/>
                </mxCell>
                <mxCell id="32" value="" style="shape=image;verticalLabelPosition=bottom;labelBackgroundColor=default;verticalAlign=top;aspect=fixed;imageAspect=0;image=data:image/png,iVBORw0KGgoAAAANSUhEUgAAAQMAAADCCAMAAAB6zFdcAAAAzFBMVEX///9fQ+lAQLJeQelTMuhbPemMe+5jRuoqKq00NK/p6fXUz/ioqNhdQOlQLehRL+hXN+g5ObD5+P5VNehYOuiIdu7t6vxNKOfw7v2nmvLCuvba1fnSzPgnJ6y9tPVsVOu1td4vL67k4Pt2YOxzc8ODcO3R0eqekPHLxPeyp/NmS+p9aeyXiPBoTupsbMG5r/SsoPLHwPZwWOtWVrkfH6qbm9O5ud9QULigkvGSks+Tg+94YuxFRbT29P5HH+fn4/uGhsrHx+VjY74VFapDYfotAAAFyklEQVR4nO2da3vaOBBGJQwEyILxhZK00EIbQsml7bbbTdJNmr38//+0kmOwsSVbTuwKaeb90g9tkvF5nh5mNCIQgsFgMBgMBoPBYDAYDAbTVE583RXoz2z8UXcJ2nPsuh/e6y5Cc47bdDj68aC7DK1hDCgN219016EzEQPqjDu/665EX54YMArtD29016IrWwaUa+FEdzV6kjBgWnBhaiHNgNLgCKIW9hlQxwWohQwDpoVpF5oWcgwo7UDTgoABpWP6WnddvzJCBqxb+ApIC2IGvFuAowUZA6aF9qnu4n5R5Az4EAFDCwUMwGihkAEQLZQwYFoYWa+FUgasW7BdCwoMrNeCCgOuhckr3ZU2FzUGfIg4tXYTocrAZi2oM6DOz5nuaptJBQa0fay72maCDJ7DYN3k6+Titwa/uSzVGXSnk6ba5/NvfxjCoMOm6iZeJwdnPa9vCgM2VQ/rf5383vNaLXMYNNA+/+n1Wy2zGNQ8VZ9/W7Za5jGocaoenM29lpkMWPsc1qAFPxKBsQyYFt69VAuxCMxl8OKpeicCkxlEWnhut8A7gpYNDPhU/fZZP/t7loDBDLgWqo9Tiz0RGM+Aa2FVTQvnN8s8AbMZ8NXcrboWmAhEBExnwLsFVS3c5UVgCQNVLSz6AhHYwkCpW8h2BNYx4N1CoRZSo4G9DCgNA6kW/LtiAtYwYFq4FmtB2BEcAgO3dgaSbkHSERwAg0caOLUz4FpY72th8EnSERwAA0K+tMP6GTAthJ+Tn+HLO4KDYEAefkzVHqsSA66F7W6uqCM4DAaEvP/LVfkPUY1BpAX+Bf69ggi0MyDko4oWqjKgDuVfMJgrI9DKgJCNW6qF6gyOIgZKNjwEBuThalTydPYzYFq4LNYCBAZMC0dFWoDBgGkhkGsBCgOmBVf2kGAYRN3CEDoDpoULoRZAMZBoARgDpoX8EAGNAZuqL7NagMeAkFlGCxAZZIcImAyInx4igDKIhoitFsAySGkBMANCPo9D8AzIw5oPEbAZ8G5hNITOgGnh+id4BqxbQAZxkAEy4JkEDTKYm8FANFXXxMDrmYGAiKbqWhh4vb9Nehvp7FppY1+JQe9f095OvFHZ2FdgsLz/R/cjVY9fupqrwKBvyOvBNrvfPFq2mlNmYJgIWFbJXaNZycZejYF5IiDdYJpcQSxazakxMFIErE8cJ3eNfPlqToWBaSKIw3vl9M1kPlU/k4E3N00EcZ7mheHoMtHCdVushRIGvU8DfY/xomxnpo6bXEGMD9sqMVjeGCiCOMncmLqC6K9FQ0QBg35voe0JXp7U7Jy6gkherfJakDLw5ndmiiDO3vnBcLR63P7F7F1WCzIG5oogTuYMJX0zOasFMYPl/bm+6utJ7hwpbCdauN0bIkQM+v2FttJrS/4szQkudlp4XKXOFvIMvJ7ZIogjOk9Ma+H4YqeFHAPjRRBHfKbama53H+LwNgyFDJY3xosgjuxcORxvtv/Ev30aIvYY9L2FtprrjvRs3Qmy3UKKgekdwX4K9gtsiEi0wLqFhMH8zA4RxCncsXTcq5QWgpiBPSKIU7Jn2tcC/2Pw30JbsQ2lbNfGuoXdRz5F47VvkQjilO8bh+6l5R/5pLJz7YyurP7IJ7W9c+huyr+VsVHcvTvBkb2fBKd8/8CxVwsV7mB0At3FNpTK91AsDDJABjzIABnwIANkwIMMkAEPMkAGPMgAGfAgA2TAgwyQAQ8yQAY8yAAZ8CADZMAzQQZkU/4+JusZCG8mQ2PwdNcIOgN+12gMnsHuCiJkBkpasJ6BghYAMGBa6BRqAQQD4p8W/TIEGAyYFiZyLUBhUKQFOAzk3QIkBoSIuwVYDMRaAMaAkDd5LYBjQMjrbLcAkAHrFva1AJFBVgswGTAtfE20AJUB08JwDJ4BIdshAjIDctKNtACaQawF4AyYFsIxeAZMC+5Qdwn6c9LVXQEGg8FgMBgMBoPBYDAYTCr/Ayt3f9/A4PxrAAAAAElFTkSuQmCC;" parent="1" vertex="1">
                    <mxGeometry x="684" y="494" width="73.43" height="55" as="geometry"/>
                </mxCell>
                <mxCell id="33" value="" style="editableCssRules=.*;shape=image;verticalLabelPosition=bottom;labelBackgroundColor=#ffffff;verticalAlign=top;aspect=fixed;imageAspect=0;image=data:image/svg+xml,PHN2ZyB4bWxucz0iaHR0cDovL3d3dy53My5vcmcvMjAwMC9zdmciIHhtbG5zOnY9Imh0dHBzOi8vdmVjdGEuaW8vbmFubyIgd2lkdGg9IjM3Ny4xNTkzMDIxNjAyNjMwNSIgaGVpZ2h0PSIzMzYuMTYyNDk5MDAzMzEwOCIgdmlld0JveD0iLTAuMDU4MDAwMDA1NzgxNjUwNTQgMC4xMTI5OTk5OTgwMzMwNDY3MiA5OS43OTAwMDA5MTU1MjczNCA4OC45NDMwMDA3OTM0NTcwMyI+JiN4YTs8c3R5bGUgdHlwZT0idGV4dC9jc3MiPiYjeGE7CS5zdDB7ZmlsbDojNjY5ZGY2O30mI3hhOwkuc3Qxe2ZpbGw6I2FlY2JmYTt9JiN4YTsJLnN0MntmaWxsOiM0Mjg1ZjQ7fSYjeGE7PC9zdHlsZT4mI3hhOwk8cGF0aCBjbGFzcz0ic3QwIiBkPSJNNTMuMjQzIDYyLjA5VjQ3LjA5NGwxMy4yMDEgOC40MTZ2MTUuMDM4em0tMzMuMDIxIDBWNDcuMDk0bDEzLjIwMSA4LjQxNnYxNS4wMzh6bTE2LjUxMS0zMi4yODVWMTQuODFsMTMuMjAxIDguNDE2djE1LjAzOHptNjIuOTk5IDMzLjk2VjI1LjQwM2wtOS41NjItMS44ODR2NDIuMTMxem0tOTkuNzg4IDBWMjUuNDAzbDkuNTYyLTEuODg0djQyLjEzMXoiLz4mI3hhOwk8cGF0aCBjbGFzcz0ic3QxIiBkPSJNNTMuMTg1IDQ3LjA5NGwxMy4yNTgtOC4yODcgMTMuMDE2IDguMjM0LTEzLjAxNiA4LjQ2OXptLTMzLjAyMSAwbDEzLjI1OC04LjI4NyAxMy4wMTYgOC4yMzQtMTMuMDE2IDguNDY5ek0zNi42NzUgMTQuODFsMTMuMjU4LTguMjg3IDEzLjAxNiA4LjIzNC0xMy4wMTYgOC40Njl6bTYzLjA1NiA0OC45NTZ2MTIuMjE3TDc3LjAxIDg5LjA1NVY3Ny43NTJ6bTAtMzguMzYzVjEzLjE4Nkw3Ny4wMS4xMTN2MTEuMzAzek0tLjA1OCA2My43NjZ2MTIuMjE3bDIyLjcyMSAxMy4wNzNWNzcuNzUyem0wLTM4LjM2M1YxMy4xODZMMjIuNjYzLjExM3YxMS4zMDN6Ii8+JiN4YTsJPHBhdGggY2xhc3M9InN0MiIgZD0iTTY2LjQ0NCA3MC41NDdWNTUuNTFsMTMuMDE2LTguNDY5djE1LjR6bS0zMy4wMjEgMFY1NS41MWwxMy4wMTYtOC40Njl2MTUuNHptMTYuNTExLTMyLjI4NVYyMy4yMjVsMTMuMDE2LTguNDY5djE1LjR6bTQ5Ljc5OCAyNS41MDNsLTkuNTYyIDUuODh2LTMuOTk2em0wLTM4LjM2M2wtOS41NjItNS44OHYzLjk5NnpNLS4wNTggNjMuNzY2bDkuNTYyIDUuODh2LTMuOTk2em0wLTM4LjM2M2w5LjU2Mi01Ljg4djMuOTk2eiIvPiYjeGE7PC9zdmc+;fillColor=none;" parent="1" vertex="1">
                    <mxGeometry x="769" y="535.5" width="81.11" height="73" as="geometry"/>
                </mxCell>
                <mxCell id="54" style="edgeStyle=none;html=1;exitX=1;exitY=0.5;exitDx=0;exitDy=0;entryX=0;entryY=0.5;entryDx=0;entryDy=0;startArrow=none;" edge="1" parent="1" source="35" target="34">
                    <mxGeometry relative="1" as="geometry"/>
                </mxCell>
                <mxCell id="35" value="" style="shape=image;verticalLabelPosition=bottom;labelBackgroundColor=default;verticalAlign=top;aspect=fixed;imageAspect=0;image=data:image/png,iVBORw0KGgoAAAANSUhEUgAAAOAAAADgCAMAAAAt85rTAAAA7VBMVEX///8giP95uP////0Mg/8Aff8AgP8Whf/6/f+nzf+SwP8fiv8Af//y+P9jqf8NhP9ztf/Q5f9Hmv/Y6P96uf/t9f////psrP/B3f+gyP8rkP+81PFCkfje6/6GvP8yk//19vVYov+Nw/+vye5rp/R/p+CuyvjZ4uqIuP+hwOgzjvpCk/ZjnO2Zwv9ypvOav/Xo6+3P3eqz1f/S3OuuwdbG4f/L09mgvNlto+lXoPjU4PLt7+3i7/6y1P+OuO1bn/9jm99Gjui/z+Opt8OLs+J8qenb39+/yta2zOhosf/E1+6ZuNuOqswyiu/J0NQLDlj9AAAU3ElEQVR4nO1da3ujthI2gbWMMQZfiDGJuTg3b27OuvVuLnbcpt00Ts/p//85BxKjGwIEjhJynr6f2g2M9SJpNBrNjGq1XMi+blkj1bzpShG8YN3sWJbuy/mvfgb48+Ojcw/UFQCkVwCg1A0vuJ7a1kc3bmv4D+qlY0BqOEKa0uDi4ORT9+NydSqxyCGS2r6rf3Qry+L2p1TPYreBIv329Bk5+kNNyWf32o+tweKzDVR/b8JL74XiSr376CYXQmPgFKAXMdS6n2iYNg6AweAADEOLAEKtmpybQLk++eiG80G23ETrFcn7/fxy0lQjNCeX5zddLaGAlOD5U8xE+yZBT7uwOydX0HKR/auTjr0MDIqi8V/1EzB81MjhadSVnVGD9aRuey2F4Aic+Xs3tzAePLLJp+a33fSnv40DwhAAzr3/bk0thRnBT/Eu86aVPlwRFFv3Gd/j40H0H5CGPT/3FXkxdIgls5n/zofhkeDXtTlfezaJaXtc1T6UbQ3jZ5gF2vmAv1mfVlSXWjeoI4B2WOjd2T5iCIJqrvgNbH0H3Zlf6GV5tMKG6U0lzbYDXNs/F379pFtH2nfgv337tkUDG2NOqR5oYvNw+NbN2xp+Gw4x0C3efy8iTPSJvE7VFM0e2h9pM+pv+uyiObTzlarVhX2oTJjW3cfBn6D14dAn/vRgdsMdkuSspj7zVQzPLSjFWQhqaUkMoTECTOIP8vjLZtMAFOmgkTPwVNiFRrdSy/2thiYg0bDGvYTD3MseeY1D+KFa5SayIPxE1iRhn8kHGkFQcZqZi7jcg9PQWFepCxEDUr/rQcI3cWpnDlMbKiuH15R9ByzhGr3fI/4wSrrWgKTqWRSh4Q2qo0j9FTx1uPSJv5gM55MEVtMMYd+gJtWy+/od8XAKxx+lGTQGv8i/5qZv8+U2nIVHvuCG80KNW26Y1Df/Av9COV9O022xEXwoqIjN7V/Gja9/o/4UE9Tup11S3SjdHynN93+DA34kvO1cmEPFp9ADDxJUQ4VaJxgCYFrMOSZPY82kNN+h9fmQj2NNouzQf8MI1hb3p2QngjbbPrXjmQu8SmgZ/yhut5YYUjjBkOKK9GYDzWUJ1AfxF2tdiW48D/TzTauVi8TCRRKs7aqkG1RStHvGKbYad6Hyl/DWc8Dy4uYmTQ+KYPg1mvvk2l8POj79Ftx6GX8LbjsXrLhPvE7ibwmCNb/XJhmC0590Jz7uxwT7ohvPg1GsHX9P2tFJguEHGbRoZUMxvDvbPAAGgtvOBXXTI+A8qRJYBGvyP4fk+aBRJw0gOTbRwUpw27lgxq2h7NAITIKhsrk4I9VpQPahG3+z/SoE0txs2mpMkqtWCsGaPHJJdUoeSCzjacqY1u+PbjzQGHZHGsFw7/4UYDsNQM7fXjytK7EnlFJJZBEMx+mBgzqRPPlcxFsmbSmq1QVQlmBokwWoC+0C770zyhPctabQjJ0VeO+dUZ6g/M8N3Gj9HxKULReFWWjEELVaVSIYm6KgkBatWcdnmBrdv8X/Vi0tGpRYB0NFOcCdGJQVNKsUwXVxS6YmH6xIe/SC+DjwIMCrgtOiWdgW9S2H3Pkq1HnGoFK2aGcznsAN326i1jkifRdAapOfxo8dVKAtuO1csDa6AnR59oO1u2GX2hDuq5RJjfaDZq0CgDt6jWNHX+sFGjn76uuEJx+66ZSx6MbzAB6w1JOGI0VQ1m2HdOYDZ5D0rC1jn4zxh/DWc8C/hioh4cqlCO5RPifguKxYNhiNUH8U3noOIEetkRijOEF50aS7L9hjCRzBJSThSP4Y2LDBHv0nnKB6SrCTDGXKdG0jR3I1dEzkRYq/eCv1bGL46w3luXfMlLNe/RCeTdyyn3h3XMAhRWs9SNCjdKeSHopoxToUdKvgkYkAD+ITB14tiQ1wne5sGcIj3uuKHJ/VTvZhy4fkrKLOzDYNV4xeemrdHVRE9eNKnL2EkGM3X7hSkPE7M0b6C1iNs85U/oSygurEAumo+eTJrbVP0zOcSVa75REMHE1EhH0k0KEsGUjZuKe6EAS2nyVoFMAnB5UJsgjxBLUJtfMZdfG1HbRW2Rs8ZDRI9Sp4KyB0uBRKxgPxl19QJC+Qbv7JURsdLGbRF9fcEligHbo2I1hYAw8YIArFO2vmDTofi9qvVAeGY0tF4Xj75DDUO7N11wt27FGu1kc5h+DcF9XUkrhDSx5YUUaYrFuWlRdJGfbfBYob0g6qsgZC6EhfGt1SEpZIAqhezHatdo3aVy+RnuMv0QQEXi//hXfHCXYeBszCdvIF5idtzSs3QCM8/xezPAtG3vsTLG5POxDUwi0hq9iBH2ip+WoFvtnxcIvnz0r2Xwh5judeg0POiSSPpg6+66hyaYR7fAOYsaklMArw7gNeVba5LPhEkD1wzG+5o+3uz33ynWoXRdht4q2VjFZ7lFE2JrQAhlSorFedTSAb/jEVUSj9NrVTJtXo+JByJEouO4a0StidBmSbgaIN1L3HO7zlsv84XzZXdCK99meF9QuEfHJDOyoMzdk/C9xlLxp/Vm82HHT3HY2u9wBa1TNA2dAHjCo5AChKvfXly5dWHat+hD/gpVQJCGfqotMMvOhl0F0PO5a1dTmoLWX6Q69IsZUXetqwx/6F+fSwK8FvAgyl7gRHx9vFeG0vszOh1UcOzpnmmXxyPHGS/R2OBm9i35XrxreRKTcW3RYvRVDXVPYA6Z9qKUKA4azK9eKbydx9Xjssv29CbKhkfZYA62t20SRQ956Ket7eVuauPdHolYAWCOrBjC2x082dx8CYFFtX3lxmwz4KgJLK0QDd62O26eLbXZ4Rru0UKCogQqbs66MmXTbmpfyRYtQV89ZKS7VTuYZ3iFP+7y1C5ivLu4c28ipqjuOt2ub4j8f081v9kP7U4SeRNvWg6D9w+kdEyERowiOV66Vt58QvyQuXmCqhdjs7v2wOVVW9mFyen1FaUBtytEaETAwNRPA/+U8vSFsPeNPO7dXmB2X/6tY2SVWhcSRxiZDJJshRpWSIjxijFdAmjtw4IGt6gfw5I0ImBkRQ0vKelad4GKIzYO6Zdx/amL0LTnP0ngiZBDCC9VneAQxeVihIL9PleugxaSf7e4uQSQAjCFbZVQx97Ni73s/wX/h7WEStlpmyLUImCYxg3smtioWbrDN/Qf4Fy/MysnypImSSwAka7ayut9BgMo5yA52wGi+JICSxMingBMM1Jv0jNlBVE2mQH+77yxkaeqkVaETITPwGTjAjn0WG+buSMcgsmLB5fg92TurcFiEzAZIg8NLea/xEUTJcWtpHlbLSAthFyEz+SJO0I5yU2swL6PsHWapI9tH+GBVOmLAfFiEzAYqgJN3cMhnCVB+QVXlsND06Oo4d/A+xhgQpuXgiZCaQIKjcMBUN3M9kVMeTeysFGEbbf/3fXTjDFHbolwiZ+QQlacWoEnAFv1w3/WTKeg3oUJqbnz6AZi6zuIcImVwEQX1i0S//Cp9KPaOXO3GKc5xy2IhrutCJsm8jk89eYxCMKt7eU6vSOH7KYcY6R0A1lOKMU7QMOCyCImRyEoxOEJsH3330GIyX2k+JRpcPUJFHmFJ7G6/MddYYFCEziyDpHQBAO+0OhvPRCxYw46WbMrU7WOAwNBeuYK0JVprFakuZfAEtkCAwTYLhC0ml3noFXH7iiD7Ztyzkl5It7AAZBLFwVM9G+ZLEljKNRIWVHIKDq6ZGU0wA5oP2fp55XTMeJR0sZQ0AGPQnT3icgSVlIs6cBNu6rHp5DOOBb3UVEHbw6iUkRT7A3gPOMZJ+kfvFtpDpFCZYa+jrVnaTvmw+46awzGs5T3yuAGIBVtm1sd5IZnGC4a/8GvA0Bga7A0mVn4i5QkQuFiFYXGYZguFAcZnXpJCN+Q5zZYDTxLwlQCHXzyIEi8ssR7Cmz356qYcWLYv82iTCuUJq/CEHv9IyQUmCkba2nZbCPM2uv1pMMvOsBADaAG5yadFyMgFfaCiD4Asen8aDledoG8S/F6/Yd/tJ9sChKwKidVDSkthSJmeWbRrBCPJovlRfAVPyg83vPZwl2tJd0hYJtDrAQE1iS5mFLZlMlxrcSe9vcmPkB7KyjgRWST8QtBtbLLtRhMzSBGExy9Pvm3+RVWKOAiPxrfFcBNZZ6rYyC+4msgn+iE1yLGv7ES8Sn5grUXunUB+wGiNCZmmC3+Hue4AeQ3MGaIxvXevF1hY4ZMkWIbM0wV10BoWOaOCcAQ7r3AaW8JIUps9FhMzSBGsoT+/aRz/34EUDBtwwM15RRdmUC2NEyEyAl6CFli1ce/mBozmXbG8xrPSY5sMUITMBXoI6LBEEAh//Q2fJ/pRYmLh2zHxCiMwEeAnKU3jQVedaYReoznXaiawImQnwEqyN0FGlw1H+v9GPn5aUfpo6ECEz8RIvwVBBQ/GtXA22u0Ynmxln/yJkUuAnKGNJsdo083vLoyP4qKR8fV+ZFPgJIld79L0zT69Qqdwo4S3L4hAhk0QBgrWv2IbNyQg4Ohmg51jFekTLJFCEYAP3nNYDdk0BWZ/V8UbnHFSKkEn+QAGC8qKNtQYo17PkK73pDb4hMNQc5ShCJoEiBMPNGFHUKooI/n6FPrn8uDfsElFXCkd4mAiZpQnKFun8BtrpfjCeR1O+NzO7+w5Vy5onXU2EzNIEQ/uRKqoeDatN0kUiRhrc8KU7iZBZmqB826Z/MwUADDnT1UTILE0wNAiZd3Ek2+JlXc7xDjJLE5QbX+v5EfL1bpEbtkTILE0wxNV93jGUx064eGeZEUoRjC4pyrgt3NAmJZJhRcislSUYhefcsDNVgOH8tMsVnBEhszTBKA3OVeoKFvgPXvL0nOmCP4v9HWSWJhhh9/sPs919PcFwPG81GP+69UUbby1zK4KvEkb2TFXVWecNk5jfUOb2BCuOfwl+dvxL8LPjX4KfHf8SzJcgYqG3ep35fN5bbF/BpnKmmvz4sFTHrtsP4brjsWr/xZsDwkSljO2ars/MCDsI0f+6e1vUyIjvHyhYt1fE1sbam/ZxbhhL92uvbM1PeIOEVoCgkA3vYsxm90qxz/AIc8GG2Rn8paWFuCwOsvhFcOdFZb4A1ef/wfeCGKfTk5lDL+rFcZmyWR0YMnbE94IIF5+1zGX3OhVTMyzScRIfbPCFJwpx/J6oXPwi2IVrZ92hq2x59FSqm71e3s2uu8m+Ms31em0yxu2wqP6SJzB2SM39OEIOX/Q+ya3vNof2KHpz0VmGSz5FvbA2RXfPnuWaDCKOuk5IBn11Tsq8tUn1avKfz7+iAYNP0pOkNj8m4gDUwuefaX7tJCfKYm9KMCy6XPTi+C+QEx4l5Agb15/hOsCW2ejgs9EtWqUWhuOAbM0uImDgCePn7mXIVLGZOi64cUHBKkZW9VghYSRYx5iZHdPAhrI5LqZontH3PswoWCkiEOgAEewz4nvxR60fqA/NpxxKJPCCHell0EWEXS3GqM3Z/ELIS+xr5DxLtx1FSmtpmlRE4JyFFgA3pbwgIXOGPkdeaRgSPiquyorkjyAk9HEP8jO5jEx9iBRSkaI54adEraEL4sey04JX08ATEAuXN3PMJ3OEjIKCZvcQpbMBj6WiUsKPs5AbfoxsNJNX76txn5sFr8ndRV0YbgMOktYEM4A8G7kB5DM4Qr/yyjyBr/QL3vCoY4uzJDXpkh3MFIAc5KUAyKix3JtjeQi78KngvmmBX42p/U4t5MwkjjzkJHE8wraq/A6lBZyFBV56gfyAZ7cBZ/CErwWsNJx8kdlpOA8xwT5nCsSLTKh5C1ozIf4hK8soBrZZSCZS8SA7OQuu224RmagLi3vZXOoWO9Bezk+uXuz7RCocF1AqHMvihhqxWUQmNH64NS+CfExVCgCS8/v55WTISGZ8+a35nPoRvzfvYMWZUDIjUY9QtkajUa8Du2JYRF1c3ccEy9wEfBskHIIAKFIyHTXE48zt990ZVmhDPlHDfxojQw6lo2JVC/z52I2AFsFCLfXjXYVZ6vag3XZ2uYc61AdX9y8jzLxH48tyX/5pjcxmmFCM6qD5U9qRZBZb0eDqWe6eVfkgyGLYguqwE7cPTa94UiH9BlPCv8CHev0dmmAxbWHDF0sRjC6ZyDh2gA1txDrQXML1CKp9yBkm9SOCs4QncF2sffP+lgRl/SD9ZAU2VI+7y1Rh/v06JgjHcZJgQ/1wghFmq0RBf7on7JggUhHxLyOnEIPgx/fgC/yni3ayhDBeZyjeubhIRXTMTZ/68b/A0iiwLIPMmIPFFjQ4B91tCIaw7KNzT6LuL4DFbaLtdcjH3MGKjb8OP9OFN8ai4jbo3ENfJrRoocLxyHGx/W3Vvm5Zz+PAY5UnqskNfbxej3X8vLrR6a9NFR2PoPJE2DBsLF6Opc01JFhoa4fWwYI7wmzkFphiIqVolbywQtSg/2H8fpZMKnJLhDGRXSIM6lO3iMxtbNEMcBR5SyKnyJsNCRa4lxkpqf6bBi5xlOlLIqf0319Q2xQYbGgdLb4fzAJXoUUaOYUW7yDBAmcNz/Clv1kyy4OnVCaF3FKZcL9k7nHLRHuQN74okK/YKYHcYqfI7zvl9a98Q67wN77Ii7NcLY7ccrUWcuPyrvVwaXnbVbAmpuCw/xW57vlkosOJwoegeRBShhrZpSbPpY/yLery8VYhiCwIKSSOeqSv5oeHnIzh46aAqwJFlG3HI2R+5DYZ20puu5NgyxdQeH+OnWkus2WeYPzMYhe1ckLIdQxYDIw5y5jb/u2Y+1uUhojLLxZ4GNAwfW7P8OcE8RNzJcoe1vAdV2VWot/9NiSe2jowPBUiLqCx8babZiJEUW48U4HOgvovgogrhKwh0XzT3VssMJmLHuWH6/NaUmUg5GIpi3K0me74Xp3Z8/ncXqr3Y6r7+jaHzC0g5GqwrwlX4o650+/3dxhhzjOx/GpiLmKbJ0Ni2XAFzr8YQq7n6+WF3L8Oz6U4/YlDxAWLmUkT8bAVtf4lwHGdJSMSJRv6U0rWC6TnPr8XvwgiLjkNrZU0jqFmfeeruMVcU7u3ZHaj6S57JWVuBREXDY+e1PEOSicI/6s//psOBXg3yLpl9Ybtl12GE+wMe5a+/VXRDV1f2CHLEO54aS/0VJn/A+oeCsF008kWAAAAAElFTkSuQmCC;" parent="1" vertex="1">
                    <mxGeometry x="523" y="532" width="84" height="84" as="geometry"/>
                </mxCell>
                <mxCell id="36" value="" style="curved=1;endArrow=classic;html=1;entryX=0.5;entryY=0;entryDx=0;entryDy=0;exitX=1;exitY=0.5;exitDx=0;exitDy=0;" parent="1" source="13" target="35" edge="1">
                    <mxGeometry width="50" height="50" relative="1" as="geometry">
                        <mxPoint x="670" y="355" as="sourcePoint"/>
                        <mxPoint x="1030" y="270" as="targetPoint"/>
                        <Array as="points">
                            <mxPoint x="450" y="340"/>
                            <mxPoint x="610" y="355"/>
                        </Array>
                    </mxGeometry>
                </mxCell>
                <mxCell id="40" value="Download Weights" style="text;html=1;strokeColor=none;fillColor=none;align=center;verticalAlign=middle;whiteSpace=wrap;rounded=0;dashed=1;" parent="1" vertex="1">
                    <mxGeometry x="400" y="360" width="229" height="30" as="geometry"/>
                </mxCell>
                <mxCell id="59" style="edgeStyle=none;html=1;exitX=0.5;exitY=0;exitDx=0;exitDy=0;" edge="1" parent="1" source="42" target="50">
                    <mxGeometry relative="1" as="geometry"/>
                </mxCell>
                <mxCell id="42" value="" style="rounded=0;whiteSpace=wrap;html=1;fillColor=none;" parent="1" vertex="1">
                    <mxGeometry x="1001.9200000000001" y="774" width="237.08" height="138" as="geometry"/>
                </mxCell>
                <mxCell id="43" value="" style="verticalLabelPosition=bottom;sketch=0;aspect=fixed;html=1;verticalAlign=top;strokeColor=none;align=center;outlineConnect=0;shape=mxgraph.citrix.laptop_2;" parent="1" vertex="1">
                    <mxGeometry x="969" y="744" width="75.77" height="56.5" as="geometry"/>
                </mxCell>
                <mxCell id="45" value="Frontend" style="text;html=1;strokeColor=none;fillColor=none;align=center;verticalAlign=middle;whiteSpace=wrap;rounded=0;" parent="1" vertex="1">
                    <mxGeometry x="1179" y="774" width="60" height="30" as="geometry"/>
                </mxCell>
                <mxCell id="46" value="" style="dashed=0;outlineConnect=0;html=1;align=center;labelPosition=center;verticalLabelPosition=bottom;verticalAlign=top;shape=mxgraph.weblogos.html5;fillColor=none;" parent="1" vertex="1">
                    <mxGeometry x="1045" y="812" width="52.400000000000006" height="74" as="geometry"/>
                </mxCell>
                <mxCell id="47" value="" style="shape=image;verticalLabelPosition=bottom;labelBackgroundColor=default;verticalAlign=top;aspect=fixed;imageAspect=0;image=data:image/png,iVBORw0KGgoAAAANSUhEUgAAAOEAAADhCAMAAAAJbSJIAAAAmVBMVEXw208yMzDw2kvz433x3Vjz4nX14FAvMTDz3U8aIC5BQDLSwUr44lAqLC8sLi8nKi9zbDkeIy4YHi4jJy/fzEzq1k6ypETl0U05OTF5cTrKuUidkUCKgD1PTDRqZDi9rkammUJHRTNfWjbax0sUGy6EezyRhj5XUzUNFy22qESekkBmYTc7OzGom0LNvElMSjT16JcBES1+djsK+dIKAAAItUlEQVR4nO2c2XbquBKGzek+GkCWkAfMPCbQBEL65P0f7tjs7CTgkiymLNVe+i+6LzYp/KGSrCqVKvrrD9e/0X/+cP03+sMVCPErEOJXIMSvQIhfgRC/AiF+BUL8CoT4FQjxKxDiVyDEr0CIX4EQvwIhfgVC/AqE+BUI8SsQ4lcgxK9AiF+BEL8CIX4FQvwKhPgVCPErEOJXIMSvQIhfgRC/AiF+BUL8CoT4FQjxKxDiVyDEr0CIX4EQvwIhfgVC/AqE+BUI8SsQ4lcgxK9AiF+BEL8CIX4FQvwKhPgVCPELByEjRAhB2Of/L/jbnyIUkJwelBGRd3rrwXKyaLcXk+V0PJ9lrMR0/OYfImSDbl3TVeNTloN2GC1VkqpYSlpJSpVqvu/2MkGcvvqHCMlexTX902kgZCIbtXkqWzXRONXLbeTC+FOEbVp/TN5AKFYDnQJ/9yGp+3MHRn8JSf7OYyPer5FMW9vGyewtodhSZec7MibTvGEYPSVk0SAx++d3KTkU1q/2k5Dlk9SJrxpG3rMieknIin3DDDzR04sN0UdCVrSBF4RFfG5B9JJwcskIHkdxa0b0kFAMnOfgp/TBuKL6R0i2/GLAFm3lpq/2jzC3bGPMUlOTn3pHKJ4dXvSAkq3BT30jZCt9FWC5Fzf4qW+E1w5hq5UO4EH0jTA3rqO0DAzLMNE0SfViCL97PCMkPYOTlqHSdP0yWg8WKbQSST4ypTY8IxQ7cDdD+XTIBCFVmiZ72dfGmW9Wxle+Z4Q5OAupmn2FgYxEa31iLVZzS9bGL0I2hN72NO6cjpAYqi9zlO8yPDtv8gItNHx2vkqSlfxtTzWF+X4RigGw55a7+hCRYfJrAJMurhhfbICFRs+grc+8WnTTfUOAH3lHuIfeBOBmRSylTMbocm2sVf8YfQMpWPbP26FxACPfCCNoCDcwB5lFTol9/wnpxDBSjgcXnhFCXtq/7av9IiR94GO6+QDHJr8IxRvwsXTkdshkkGeE0Mab0pu+2jNCMP5VA5e3gkl+EZJXMADW6xsQ/SJkBziTyN9d3w11+UVoiA/L1WZxcDv1r8szQkOMX+5skkF2HaNnhIaJWEnp56sYPSNkhSWlr/Sg41iA8U2eEUZiajt3ivlyxi5k9I2QfQTvJknefskvclbfCKvI1orYoil/71zA6B0h6zzZCUspvpsRV2f1jrDcuTkckEq+6DlOSP8Io8jpFJ/q9qsTo4eErON2CEz1vufgqx4SRqLneM5N9WKGs+pLjJpXmw/GhpR+5ClhiehcrRDrkb2Y1k/CSMyfnOsV9AbRycyXxEw510VJbats85UwIpl78V4rGZvXVG8JI0bW3HkY9c5Yv+8vYempnYl2nY3pxpTn8JmwHMZX6eqqaoORsCr2XivHApu0Cy83nhOWrlqMbQX7382NQETvCSMm8nXLaT7yA2TPf8JSIn9tO6yrcoGWsPx7MZxq1TSQGvJTJISVs67GccOEpNCRPxrCijGaL+zOCh3EISKszLDZxsZI+3WLuAirCXmYJmZGXq+9wUZYOWtnyU3zMa4fNeIjrBhn9QLMDzfd1z6NkbA0Fz0bkgB1mzgJy03AK4yY9s5XU6yEpoScqsXCaAkj8Q4FHfVSTbyEUQ7V7dM2GsJmeLg0JcbipcLhrv4MurnAH7uWGtNBYMFaYiQk0fp/tUWx9mUZtNYk55vvuxKKzHjvFTq75oZxYqLXTyktmkYxh4w+kpCxFz0x/PA59HPzAjQjDpNqVxYDBexnRn+WkInhm25x2LfgA7MUKuAWxeAjejDkXb6Mwl56/rF7EZYP9iSrOkKw7Jz0gH0kbdXdkEQj/blCJjMrIgFXGvWYlYaR1/jXg6l36KnAexS05tLllrr97aegltu9ldEuZPQx78Ny5nwmw55qF1xK5UB1cys+T3CK1fK0kQJNLdX48F1MuXwAYdWi4ysmpTJzrOVK1+TUzLM+D21panZUAt0+ecS+9MtBf/+K7fwMkeUSilhP7sIwMgcT+MkaPv9kpAuXot49tgBOT+QiO/kWFi3BSi79bbBZ1jYkfdO3IXBUL4olHAPXy95vIyw9C0gMyXj7VWDHRLaBLxW2T36HhSn5IvlueNoVqkq6Sbj8jdaTwjcRsh7cQ4bySa+ounIJkg/fa7Prl9T4+xQjQ3NxguTt9TAv7R0vkZYmx9SUOD01ejuh6JrOhaRO33bd7m4ijX2C+OnNZGtRIlVcTqbj9Wg97k5ibk5+P9W3jbeNYWa5PE9lHIMrzMc/70+fhRXGa9q/7SmVKhXbUsISuEF02zwU48ubdHzo7F1R7XvsdZcu0kBjhVvXUnpNE4vjw9RCh2t6mpxKLoDdxo2EVzUiqQTu7i7uS3OmBNpP3fw+vPKHT4HojxWty3oLnUmB59y379r21zwVeNIXkVXDamMV7Z9vpu5DyFZX9JOR8M3XiHTcK6Fq4nAkcvsYErBLgFVUmfJMZHW1oyaG0q87xBZi69g87lNghPWBWCyum9hPpn5f94gPxcy5dOmo5NUSuzPWvaZPlGkE7xUBD607jbOHebIBVtZ6+tK3RhybOw/cJ4tBio1r8yOp7NmXCjHbXeT3lC+Lh9cmMrI2hBBn0pNVc/F5la9xd3wVv9qqhO+WTaySLI2MKn1x6/9LmFONULUs62fLAEb3zAgzMdxYW6rSNH0unK+7VmUXjQVtUtNx05W9e2b1mTgMUg1vS8oIr78uLrqSRcRqvUhSUwRGY82XveZbXnc+mRH5ttvnqfr2WLTqaqzfxkPi3KD601wJOZ/2tU5PIs0y8iwttge9wuU24t1P14iIVr3xrq2ShHNe/qc16Y5mGbnyGi+r7M1Gg80+PRosLab9zWB0bOntZOER54fHzukkKrLVKssZubSJet1eZaP8hY4Gi5xd1pb9kSekjN1GBhq82CKOvvq3KBDiVyDEr0CIX4EQvwIhfgVC/AqE+FUS/v2H66//A5kQnvLfn5reAAAAAElFTkSuQmCC;" parent="1" vertex="1">
                    <mxGeometry x="1129" y="824" width="65" height="65" as="geometry"/>
                </mxCell>
                <mxCell id="49" value="API Call" style="text;html=1;strokeColor=none;fillColor=none;align=center;verticalAlign=middle;whiteSpace=wrap;rounded=0;dashed=1;" parent="1" vertex="1">
                    <mxGeometry x="985" y="546" width="60" height="30" as="geometry"/>
                </mxCell>
                <mxCell id="65" style="edgeStyle=none;html=1;" edge="1" parent="1" target="63">
                    <mxGeometry relative="1" as="geometry">
                        <mxPoint x="1120.46" y="649" as="sourcePoint"/>
                    </mxGeometry>
                </mxCell>
                <mxCell id="50" value="" style="dashed=0;outlineConnect=0;html=1;align=center;labelPosition=center;verticalLabelPosition=bottom;verticalAlign=top;shape=mxgraph.weblogos.github;fillColor=none;" vertex="1" parent="1">
                    <mxGeometry x="1082.96" y="645" width="75" height="75" as="geometry"/>
                </mxCell>
                <mxCell id="39" value="CI/CD" style="text;html=1;strokeColor=none;fillColor=none;align=center;verticalAlign=middle;whiteSpace=wrap;rounded=0;dashed=1;" parent="1" vertex="1">
                    <mxGeometry x="460" y="550.5" width="60" height="30" as="geometry"/>
                </mxCell>
                <mxCell id="60" value="Push" style="text;html=1;align=center;verticalAlign=middle;resizable=0;points=[];autosize=1;strokeColor=none;fillColor=none;" vertex="1" parent="1">
                    <mxGeometry x="1113.5" y="730" width="50" height="30" as="geometry"/>
                </mxCell>
                <mxCell id="61" value="" style="sketch=0;pointerEvents=1;shadow=0;dashed=0;html=1;strokeColor=none;labelPosition=center;verticalLabelPosition=bottom;verticalAlign=top;align=center;fillColor=#505050;shape=mxgraph.mscae.intune.user_group" vertex="1" parent="1">
                    <mxGeometry x="1270.5" y="546" width="63" height="52" as="geometry"/>
                </mxCell>
                <mxCell id="62" value="Users" style="text;html=1;align=center;verticalAlign=middle;resizable=0;points=[];autosize=1;strokeColor=none;fillColor=none;" vertex="1" parent="1">
                    <mxGeometry x="1277" y="516" width="50" height="30" as="geometry"/>
                </mxCell>
                <mxCell id="63" value="" style="dashed=0;outlineConnect=0;html=1;align=center;labelPosition=center;verticalLabelPosition=bottom;verticalAlign=top;shape=mxgraph.weblogos.github;fillColor=none;" vertex="1" parent="1">
                    <mxGeometry x="1082.96" y="535" width="75" height="75" as="geometry"/>
                </mxCell>
                <mxCell id="64" value="GitHub Pages" style="text;html=1;align=center;verticalAlign=middle;resizable=0;points=[];autosize=1;strokeColor=none;fillColor=none;" vertex="1" parent="1">
                    <mxGeometry x="1070.46" y="514" width="100" height="30" as="geometry"/>
                </mxCell>
                <mxCell id="66" value="Deploy" style="text;html=1;align=center;verticalAlign=middle;resizable=0;points=[];autosize=1;strokeColor=none;fillColor=none;" vertex="1" parent="1">
                    <mxGeometry x="1115.5" y="620" width="60" height="30" as="geometry"/>
                </mxCell>
                <mxCell id="67" value="" style="endArrow=classic;startArrow=classic;html=1;" edge="1" parent="1" source="31" target="63">
                    <mxGeometry width="50" height="50" relative="1" as="geometry">
                        <mxPoint x="1054" y="410" as="sourcePoint"/>
                        <mxPoint x="1094" y="570" as="targetPoint"/>
                    </mxGeometry>
                </mxCell>
                <mxCell id="68" value="" style="endArrow=classic;startArrow=classic;html=1;entryX=0.05;entryY=0.5;entryDx=0;entryDy=0;entryPerimeter=0;" edge="1" parent="1" source="63" target="61">
                    <mxGeometry width="50" height="50" relative="1" as="geometry">
                        <mxPoint x="960.5" y="580.2561475409836" as="sourcePoint"/>
                        <mxPoint x="1092.96" y="581.2255562060891" as="targetPoint"/>
                    </mxGeometry>
                </mxCell>
                <mxCell id="69" value="Access" style="text;html=1;align=center;verticalAlign=middle;resizable=0;points=[];autosize=1;strokeColor=none;fillColor=none;" vertex="1" parent="1">
                    <mxGeometry x="1190.5" y="546" width="60" height="30" as="geometry"/>
                </mxCell>
            </root>
        </mxGraphModel>
    </diagram>
</mxfile>